<svg width="400" height="300" viewBox="0 0 400 300" fill="none" xmlns="http://www.w3.org/2000/svg">
<g clip-path="url(#clip0)">
<path d="M168.996 291.373C249.054 307.372 319.182 289.223 357.801 257.044C373.711 243.784 389.8 223.434 395.71 199.835C417.14 113.997 353.921 42.9989 304.892 69.6783C224.774 113.307 212.825 82.298 147.536 16.0496C98.1675 -33.9491 -58.4585 36.0491 23.1094 183.385C56.2486 243.274 111.777 279.933 168.996 291.373Z" fill="url(#paint0_linear)"/>
<path d="M309.112 296.683C309.112 297.983 262.023 299.023 203.934 299.023C145.846 299.023 98.7471 298.023 98.7471 296.683C98.7471 295.343 145.836 294.343 203.934 294.343C262.033 294.343 309.112 295.393 309.112 296.683Z" fill="url(#paint1_radial)"/>
<path d="M340.221 202.505C340.221 202.505 337.651 204.805 336.221 215.195C334.791 225.584 331.582 228.764 325.222 233.054C318.862 237.344 301.992 245.224 296.702 260.833L273.583 251.834C273.583 251.834 281.783 243.204 286.733 233.974C291.683 224.744 299.912 221.284 310.732 220.194C321.552 219.104 331.372 202.545 340.221 202.505Z" fill="#3FB790"/>
<path d="M340.222 202.505C335.513 204.436 331.645 207.981 329.312 212.505C325.562 219.974 322.082 225.444 312.682 229.434C303.283 233.424 291.273 240.234 284.993 256.284" stroke="white" stroke-width="1.22" stroke-miterlimit="10"/>
<path d="M354.441 120.147C354.441 120.147 351.992 122.997 352.282 131.587C352.572 140.176 351.722 150.686 347.102 154.586C342.482 158.486 335.712 162.866 331.832 172.086C327.952 181.305 331.472 189.085 324.882 196.375C318.292 203.665 313.243 204.015 310.243 214.885C307.243 225.754 313.723 237.884 289.343 256.504L243.614 247.864C243.614 247.864 263.094 223.574 269.894 210.165C276.693 196.755 274.513 189.465 282.753 180.945C290.993 172.426 299.363 177.086 304.963 168.786C310.563 160.486 311.993 152.676 318.602 147.996C325.212 143.316 334.532 142.706 339.722 134.597C344.742 126.737 351.202 120.997 354.441 120.147Z" fill="#90DAD8"/>
<path d="M354.441 120.147C345.972 126.527 343.842 136.087 342.062 143.016C340.282 149.946 329.322 150.246 323.882 158.936C318.442 167.626 317.252 176.456 311.402 183.625C305.553 190.795 298.503 190.415 291.623 200.495C284.743 210.575 287.313 237.124 266.684 252.194" stroke="white" stroke-width="1.22" stroke-miterlimit="10"/>
<path d="M118.547 259.774L120.157 258.994C104.1 225.826 80.9276 196.606 52.2892 173.416L51.1592 174.806C79.5954 197.83 102.604 226.841 118.547 259.774Z" fill="#3FB790"/>
<path d="M53.3388 190.995C58.7888 189.475 62.2588 183.995 62.2588 183.995C61.1399 183.407 59.9594 182.944 58.7388 182.615C56.2501 181.889 53.6087 181.869 51.1088 182.555C48.6671 183.405 46.4935 184.885 44.8088 186.845C43.9583 187.768 43.2012 188.773 42.5488 189.845C42.5488 189.845 47.8888 192.505 53.3388 190.995Z" fill="#3FB790"/>
<path d="M77.6884 182.376C77.1555 184.94 75.9074 187.301 74.0884 189.186C73.262 190.126 72.3367 190.974 71.3284 191.716C70.6747 190.637 70.1319 189.494 69.7084 188.306C68.7542 185.855 68.411 183.209 68.7084 180.596C69.6084 174.866 74.7084 170.976 74.7084 170.976C75.457 172.082 76.0903 173.261 76.5984 174.496C77.6707 176.975 78.0475 179.699 77.6884 182.376Z" fill="#3FB790"/>
<path d="M61.8182 172.996C61.4382 176.746 58.0682 179.446 58.0682 179.446C56.6162 177.334 55.8674 174.818 55.9282 172.256C56.2582 168.486 59.5282 165.736 59.5282 165.736C60.0484 166.422 60.4974 167.159 60.8682 167.936C61.6387 169.505 61.9672 171.254 61.8182 172.996Z" fill="#3FB790"/>
<path d="M50.119 168.656C53.029 171.176 53.349 175.406 53.349 175.406C53.349 175.406 49.129 175.536 46.349 173.096C43.569 170.656 42.999 166.486 42.999 166.486C42.999 166.486 47.169 166.196 50.119 168.656Z" fill="#3FB790"/>
<path d="M65.4785 206.435C68.5797 205.718 71.4552 204.244 73.8485 202.145C75.0401 201.157 76.1289 200.052 77.0985 198.845C75.8011 198.007 74.4035 197.335 72.9385 196.845C69.9845 195.686 66.7585 195.404 63.6485 196.035C60.5846 196.873 57.7926 198.497 55.5485 200.745C54.409 201.794 53.3679 202.946 52.4385 204.185C53.709 204.866 55.0503 205.406 56.4385 205.795C59.3504 206.763 62.4592 206.983 65.4785 206.435Z" fill="#3FB790"/>
<path d="M96.1675 198.535C95.2315 201.619 93.4385 204.372 90.9975 206.475C89.8545 207.522 88.6081 208.45 87.2775 209.245C86.6246 207.836 86.1024 206.37 85.7175 204.865C84.8392 201.756 84.7158 198.482 85.3575 195.315C86.1932 192.211 87.8395 189.384 90.1275 187.125C91.2065 185.989 92.4147 184.982 93.7275 184.125C94.549 185.576 95.2191 187.108 95.7275 188.695C96.7862 191.871 96.9386 195.278 96.1675 198.535Z" fill="#3FB790"/>
<path d="M81.4483 225.185C84.6085 224.784 87.6227 223.617 90.2283 221.785C91.5262 220.927 92.7325 219.939 93.8283 218.835C92.6231 217.875 91.3191 217.047 89.9383 216.365C87.1144 214.917 83.9401 214.293 80.7783 214.565C77.6247 215.063 74.6582 216.384 72.1783 218.395C70.9491 219.332 69.8108 220.384 68.7783 221.535C69.9727 222.333 71.238 223.019 72.5583 223.585C75.3499 224.825 78.3995 225.374 81.4483 225.185Z" fill="#3FB790"/>
<path d="M112.807 220.555C111.541 223.522 109.461 226.07 106.807 227.905C105.562 228.837 104.221 229.635 102.807 230.285C102.298 228.807 101.937 227.283 101.727 225.735C101.138 222.558 101.358 219.284 102.367 216.215C103.518 213.214 105.448 210.573 107.957 208.565C109.129 207.567 110.406 206.702 111.767 205.985C112.449 207.507 112.946 209.105 113.247 210.745C114.024 213.991 113.871 217.391 112.807 220.555Z" fill="#3FB790"/>
<path d="M94.7778 244.524C97.9678 244.437 101.088 243.572 103.868 242.004C105.236 241.278 106.526 240.413 107.718 239.424C107.718 239.424 102.158 233.714 95.1278 233.934C91.9506 234.112 88.8767 235.126 86.2178 236.874C84.9001 237.691 83.6584 238.625 82.5078 239.664C82.5078 239.664 87.8778 244.454 94.7778 244.524Z" fill="#3FB790"/>
<path d="M126.427 243.054C124.896 245.88 122.589 248.208 119.777 249.764C118.447 250.576 117.036 251.246 115.567 251.764C115.567 251.764 113.567 244.164 116.567 237.764C118.026 234.893 120.216 232.458 122.917 230.704C124.191 229.825 125.56 229.09 126.997 228.514C127.494 230.11 127.829 231.752 127.997 233.414C128.402 236.712 127.857 240.056 126.427 243.054Z" fill="#3FB790"/>
<path d="M116.657 254.694C116.657 254.694 117.657 235.464 100.327 225.984C82.9976 216.505 59.7782 217.315 56.8083 215.685C53.8384 214.055 61.9382 220.045 62.6181 225.574C63.2981 231.104 72.9979 251.664 89.8175 255.754C106.637 259.844 115.827 257.204 116.657 254.694Z" fill="#90DAD8"/>
<path d="M61.1987 217.425C62.2387 218.264 63.369 218.985 64.5686 219.575C65.7586 220.194 66.9686 220.814 68.1685 221.374C70.6185 222.504 73.1684 223.514 75.6183 224.524C78.0683 225.534 80.6782 226.454 83.2082 227.384C84.4881 227.884 85.9081 228.464 87.2081 229.024C88.508 229.584 89.748 230.264 90.998 230.994C95.9444 233.745 100.527 237.104 104.638 240.994C106.647 242.94 108.547 244.996 110.327 247.154C112.125 249.311 113.728 251.623 115.117 254.064L114.847 254.304C112.537 252.714 110.347 251.084 108.128 249.464L101.558 244.664C97.2078 241.504 92.8479 238.434 88.328 235.724C87.2081 235.014 86.0381 234.434 84.8981 233.784L81.3582 232.034C78.8383 230.874 76.3583 229.584 73.9284 228.214C71.4705 226.837 69.1055 225.301 66.8486 223.614C65.7173 222.786 64.6416 221.884 63.6286 220.914C62.5474 219.969 61.6344 218.846 60.9287 217.595L61.1987 217.425Z" fill="white"/>
<path d="M116.667 254.224C116.667 254.384 121.837 261.314 122.127 262.694C122.417 264.074 121.127 264.494 120.647 263.504C120.167 262.514 115.867 254.944 115.867 254.944L116.667 254.224Z" fill="#C7E2FF"/>
<path opacity="0.3" d="M164.316 281.263H191.786C192.738 281.262 193.659 280.927 194.39 280.317C195.121 279.707 195.615 278.86 195.785 277.923C201.325 248.834 218.675 223.484 246.274 201.415C246.91 200.91 247.358 200.205 247.544 199.415C247.692 198.837 247.696 198.231 247.557 197.651C247.417 197.071 247.138 196.533 246.744 196.085C246.35 195.637 245.853 195.291 245.295 195.079C244.738 194.866 244.137 194.793 243.544 194.865C222.67 197.603 203.256 207.065 188.24 221.821C173.223 236.576 163.421 255.82 160.316 276.643C160.239 277.216 160.287 277.8 160.456 278.353C160.624 278.908 160.911 279.42 161.296 279.853C161.684 280.28 162.158 280.621 162.686 280.853C163.194 281.103 163.75 281.243 164.316 281.263Z" fill="white"/>
<path d="M64.4871 85.3625C68.7633 81.0863 71.0522 76.442 69.5995 74.9893C68.1467 73.5365 63.5025 75.8254 59.2262 80.1017C54.95 84.3779 52.6611 89.0222 54.1138 90.4749C55.5666 91.9277 60.2109 89.6388 64.4871 85.3625Z" fill="#BEDBF7"/>
<path d="M63.3784 134.997C49.4788 148.896 37.1091 159.046 35.7491 157.686C34.3892 156.326 44.5389 143.996 58.4286 130.057C72.3182 116.117 84.6979 106.057 86.0679 107.377C87.4378 108.697 77.2781 121.107 63.3784 134.997Z" fill="#BEDBF7"/>
<path d="M370.004 91.0036C374.28 86.7274 376.569 82.0831 375.116 80.6304C373.663 79.1776 369.019 81.4665 364.743 85.7428C360.467 90.019 358.178 94.6633 359.63 96.116C361.083 97.5688 365.727 95.2799 370.004 91.0036Z" fill="#BEDBF7"/>
<path d="M357.071 189.385C352.791 193.665 348.151 195.945 346.701 194.495C345.251 193.045 347.531 188.395 351.811 184.125C356.091 179.855 360.731 177.565 362.181 179.015C363.631 180.465 361.341 185.115 357.071 189.385Z" fill="#BEDBF7"/>
<path d="M354.841 240.534C340.942 254.434 328.572 264.593 327.212 263.223C325.852 261.853 335.992 249.484 349.892 235.594C363.791 221.704 376.161 211.535 377.531 212.905C378.901 214.275 368.741 226.644 354.841 240.534Z" fill="#BEDBF7"/>
<path d="M293.663 46.3889V259.734C293.665 265.248 291.552 270.553 287.758 274.555C283.965 278.557 278.78 280.951 273.273 281.243L252.504 282.353L125.167 289.133C122.246 289.289 119.323 288.848 116.578 287.838C113.832 286.828 111.321 285.269 109.198 283.256C107.075 281.243 105.384 278.819 104.229 276.131C103.073 273.444 102.477 270.549 102.478 267.623V42.629C102.479 39.7539 103.056 36.9082 104.175 34.2595C105.293 31.6108 106.93 29.2127 108.99 27.2065C111.049 25.2002 113.489 23.6263 116.166 22.5775C118.843 21.5287 121.703 21.0262 124.577 21.0995L272.673 24.8895C278.283 25.0327 283.616 27.3597 287.536 31.3751C291.456 35.3905 293.654 40.7772 293.663 46.3889Z" fill="url(#paint2_linear)"/>
<path style="mix-blend-mode:multiply" opacity="0.3" d="M239.994 282.993L117.107 289.533C115.228 289.633 113.347 289.35 111.581 288.7C109.814 288.049 108.199 287.046 106.833 285.751C105.466 284.456 104.378 282.897 103.635 281.167C102.891 279.438 102.508 277.575 102.508 275.693V74.698C102.508 57.4285 127.877 55.6985 130.107 72.8281C130.107 73.0181 130.107 73.2081 130.177 73.4081C136.057 122.737 116.617 212.565 187.686 219.334C228.955 223.274 249.624 244.664 252.964 267.043C253.257 268.957 253.146 270.912 252.638 272.781C252.131 274.649 251.237 276.391 250.015 277.893C248.793 279.396 247.271 280.626 245.545 281.504C243.819 282.382 241.928 282.889 239.994 282.993Z" fill="url(#paint3_linear)"/>
<path d="M292.613 265.993L150.776 272.853C150.318 272.877 149.861 272.78 149.451 272.571C149.042 272.362 148.696 272.049 148.446 271.663L123.587 233.324C123.314 232.908 123.168 232.422 123.167 231.924V31.9291C123.172 28.7815 123.81 25.667 125.042 22.7707C126.275 19.8745 128.077 17.2557 130.342 15.0699C132.607 12.8842 135.289 11.1762 138.227 10.0475C141.165 8.91884 144.301 8.39247 147.446 8.49972L287.273 12.6796C294.011 12.8538 300.417 15.6463 305.131 20.4647C309.845 25.2831 312.496 31.7483 312.522 38.489V245.214C312.515 250.574 310.441 255.724 306.733 259.595C303.025 263.465 297.967 265.757 292.613 265.993Z" fill="#E0E9F3"/>
<path d="M288.993 265.893L147.166 272.803C146.706 272.829 146.248 272.731 145.839 272.52C145.429 272.309 145.083 271.992 144.837 271.603L119.997 232.994C119.722 232.572 119.576 232.078 119.577 231.574V29.9294C119.577 26.7761 120.21 23.6549 121.438 20.7506C122.666 17.8462 124.464 15.2179 126.726 13.021C128.988 10.8242 131.668 9.10364 134.607 7.96119C137.546 6.81874 140.685 6.27766 143.837 6.36997L283.663 10.5799C290.426 10.7776 296.845 13.6039 301.558 18.4585C306.271 23.313 308.905 29.8134 308.902 36.5792V244.994C308.901 250.367 306.833 255.534 303.127 259.425C299.421 263.316 294.36 265.632 288.993 265.893Z" fill="white"/>
<path d="M119.557 232.314C119.557 232.314 134.196 249.374 170.205 254.574L145.656 272.883L119.557 232.314Z" fill="#D8DEE8"/>
<path d="M173.406 34.8892H144.206C139.131 34.8892 135.017 39.0036 135.017 44.0789V61.9785C135.017 67.0539 139.131 71.1683 144.206 71.1683H173.406C178.481 71.1683 182.595 67.0539 182.595 61.9785V44.0789C182.595 39.0036 178.481 34.8892 173.406 34.8892Z" fill="#D8DFEF"/>
<path d="M255.283 37.1892H204.104C202.724 37.1892 201.604 38.3085 201.604 39.6891V40.1691C201.604 41.5498 202.724 42.6691 204.104 42.6691H255.283C256.664 42.6691 257.783 41.5498 257.783 40.1691V39.6891C257.783 38.3085 256.664 37.1892 255.283 37.1892Z" fill="#D8DEE8"/>
<path d="M276.853 49.0989H204.104C202.724 49.0989 201.604 50.2181 201.604 51.5988V52.0788C201.604 53.4595 202.724 54.5787 204.104 54.5787H276.853C278.233 54.5787 279.353 53.4595 279.353 52.0788V51.5988C279.353 50.2181 278.233 49.0989 276.853 49.0989Z" fill="#D8DEE8"/>
<path d="M276.853 61.5386H204.104C202.724 61.5386 201.604 62.6578 201.604 64.0385V64.5185C201.604 65.8992 202.724 67.0184 204.104 67.0184H276.853C278.233 67.0184 279.353 65.8992 279.353 64.5185V64.0385C279.353 62.6578 278.233 61.5386 276.853 61.5386Z" fill="#D8DEE8"/>
<path d="M241.114 92.5178H137.517C136.136 92.5178 135.017 93.6371 135.017 95.0178V95.0278C135.017 96.4084 136.136 97.5277 137.517 97.5277H241.114C242.495 97.5277 243.614 96.4084 243.614 95.0278V95.0178C243.614 93.6371 242.495 92.5178 241.114 92.5178Z" fill="#D8DEE8"/>
<path d="M156.706 111.967H146.586C141.511 111.967 137.396 116.082 137.396 121.157V128.677C137.396 133.753 141.511 137.867 146.586 137.867H156.706C161.782 137.867 165.896 133.753 165.896 128.677V121.157C165.896 116.082 161.782 111.967 156.706 111.967Z" stroke="#D8DFEF" stroke-width="4" stroke-miterlimit="10"/>
<path d="M156.706 149.876H146.586C141.511 149.876 137.396 153.991 137.396 159.066V166.586C137.396 171.662 141.511 175.776 146.586 175.776H156.706C161.782 175.776 165.896 171.662 165.896 166.586V159.066C165.896 153.991 161.782 149.876 156.706 149.876Z" stroke="#D8DFEF" stroke-width="4" stroke-miterlimit="10"/>
<path d="M156.706 187.795H146.586C141.511 187.795 137.396 191.91 137.396 196.985V204.505C137.396 209.581 141.511 213.695 146.586 213.695H156.706C161.782 213.695 165.896 209.581 165.896 204.505V196.985C165.896 191.91 161.782 187.795 156.706 187.795Z" stroke="#D8DFEF" stroke-width="4" stroke-miterlimit="10"/>
<path d="M276.853 115.147H188.355C186.975 115.147 185.855 116.266 185.855 117.647V118.127C185.855 119.508 186.975 120.627 188.355 120.627H276.853C278.234 120.627 279.353 119.508 279.353 118.127V117.647C279.353 116.266 278.234 115.147 276.853 115.147Z" fill="#D8DEE8"/>
<path d="M276.853 127.057H188.355C186.975 127.057 185.855 128.176 185.855 129.557V130.037C185.855 131.417 186.975 132.537 188.355 132.537H276.853C278.234 132.537 279.353 131.417 279.353 130.037V129.557C279.353 128.176 278.234 127.057 276.853 127.057Z" fill="#D8DEE8"/>
<path d="M276.853 152.016H188.355C186.975 152.016 185.855 153.135 185.855 154.516V154.996C185.855 156.377 186.975 157.496 188.355 157.496H276.853C278.234 157.496 279.353 156.377 279.353 154.996V154.516C279.353 153.135 278.234 152.016 276.853 152.016Z" fill="#D8DEE8"/>
<path d="M276.853 164.966H188.355C186.975 164.966 185.855 166.085 185.855 167.466V167.946C185.855 169.326 186.975 170.446 188.355 170.446H276.853C278.234 170.446 279.353 169.326 279.353 167.946V167.466C279.353 166.085 278.234 164.966 276.853 164.966Z" fill="#D8DEE8"/>
<path d="M273.593 191.525H185.096C183.715 191.525 182.596 192.644 182.596 194.025V194.505C182.596 195.886 183.715 197.005 185.096 197.005H273.593C274.974 197.005 276.093 195.886 276.093 194.505V194.025C276.093 192.644 274.974 191.525 273.593 191.525Z" fill="#D8DEE8"/>
<path d="M273.593 204.485H185.096C183.715 204.485 182.596 205.604 182.596 206.985V207.465C182.596 208.845 183.715 209.965 185.096 209.965H273.593C274.974 209.965 276.093 208.845 276.093 207.465V206.985C276.093 205.604 274.974 204.485 273.593 204.485Z" fill="#D8DEE8"/>
<path d="M298.699 148.398C306.946 148.398 315.008 145.952 321.866 141.37C328.723 136.788 334.068 130.276 337.224 122.656C340.38 115.037 341.206 106.653 339.597 98.5639C337.988 90.4751 334.016 83.0451 328.185 77.2134C322.353 71.3817 314.923 67.4102 306.834 65.8013C298.745 64.1923 290.361 65.0181 282.741 68.1742C275.122 71.3303 268.609 76.6749 264.028 83.5323C259.446 90.3896 257 98.4517 257 106.699C257 117.758 261.393 128.365 269.213 136.185C277.033 144.005 287.64 148.398 298.699 148.398Z" fill="url(#paint4_linear)"/>
<path d="M301.97 106.699L316.54 92.1394C316.764 91.926 316.943 91.6699 317.067 91.3863C317.19 91.1026 317.256 90.7971 317.26 90.4877C317.263 90.1783 317.205 89.8713 317.088 89.5847C316.972 89.2981 316.799 89.0377 316.58 88.8189C316.361 88.6001 316.101 88.4273 315.814 88.3106C315.528 88.194 315.221 88.1358 314.911 88.1396C314.602 88.1433 314.296 88.209 314.013 88.3326C313.729 88.4562 313.473 88.6353 313.26 88.8594L298.7 103.429L284.13 88.8594C283.912 88.649 283.658 88.4796 283.38 88.3594C283.098 88.2406 282.795 88.1794 282.49 88.1794C282.184 88.1794 281.881 88.2406 281.6 88.3594C281.321 88.4761 281.068 88.6466 280.855 88.8611C280.643 89.0755 280.474 89.3298 280.36 89.6094C280.24 89.8908 280.179 90.1936 280.18 90.4994C280.18 90.805 280.242 91.1075 280.36 91.3894C280.48 91.6674 280.649 91.9215 280.86 92.1394L295.43 106.699L280.86 121.269C280.649 121.487 280.48 121.741 280.36 122.019C280.242 122.301 280.18 122.604 280.18 122.909C280.179 123.215 280.241 123.518 280.36 123.799C280.475 124.08 280.645 124.335 280.86 124.549C281.074 124.764 281.329 124.934 281.61 125.049C281.891 125.168 282.194 125.229 282.5 125.229C282.805 125.229 283.108 125.168 283.39 125.049C283.668 124.929 283.922 124.76 284.14 124.549L298.71 109.979L313.26 124.549C313.529 124.818 313.861 125.017 314.226 125.127C314.59 125.238 314.976 125.257 315.35 125.183C315.723 125.108 316.073 124.944 316.368 124.702C316.662 124.461 316.893 124.151 317.04 123.799C317.159 123.518 317.22 123.215 317.22 122.909C317.22 122.604 317.159 122.301 317.04 122.019C316.923 121.739 316.753 121.485 316.54 121.269L301.97 106.699Z" fill="white"/>
</g>
<defs>
<linearGradient id="paint0_linear" x1="191.865" y1="294.983" x2="209.915" y2="-59.3685" gradientUnits="userSpaceOnUse">
<stop stop-color="#FEFEFD"/>
<stop offset="1" stop-color="#EBF3FF"/>
</linearGradient>
<radialGradient id="paint1_radial" cx="0" cy="0" r="1" gradientUnits="userSpaceOnUse" gradientTransform="translate(203.458 293.042) scale(108.597 103.427)">
<stop stop-color="#D0DFF3"/>
<stop offset="0.99" stop-color="#D0DFF3"/>
</radialGradient>
<linearGradient id="paint2_linear" x1="102.478" y1="155.106" x2="293.663" y2="155.106" gradientUnits="userSpaceOnUse">
<stop stop-color="#FFC444"/>
<stop offset="1" stop-color="#F36F56"/>
</linearGradient>
<linearGradient id="paint3_linear" x1="15537.6" y1="40142.5" x2="38223.4" y2="40142.5" gradientUnits="userSpaceOnUse">
<stop stop-color="#FFC444"/>
<stop offset="1" stop-color="#F36F56"/>
</linearGradient>
<linearGradient id="paint4_linear" x1="297.329" y1="172.977" x2="301.499" y2="-28.5576" gradientUnits="userSpaceOnUse">
<stop stop-color="#FF8E00"/>
<stop offset="1" stop-color="#FFCF01"/>
</linearGradient>
<clipPath id="clip0">
<rect width="400" height="299.023" fill="white"/>
</clipPath>
</defs>
</svg>
