<svg width="400" height="300" viewBox="0 0 400 300" fill="none" xmlns="http://www.w3.org/2000/svg">
<g clip-path="url(#clip0)">
<path d="M168.996 291.373C249.054 307.372 319.182 289.223 357.801 257.044C373.711 243.784 389.8 223.434 395.71 199.835C417.14 113.997 353.921 42.9989 304.892 69.6783C224.774 113.307 212.825 82.298 147.536 16.0496C98.1675 -33.9491 -58.4585 36.0491 23.1094 183.385C56.2486 243.274 111.777 279.933 168.996 291.373Z" fill="url(#paint0_linear)"/>
<path d="M309.112 296.683C309.112 297.983 262.023 299.023 203.935 299.023C145.846 299.023 98.7476 298.023 98.7476 296.683C98.7476 295.343 145.836 294.343 203.935 294.343C262.033 294.343 309.112 295.393 309.112 296.683Z" fill="url(#paint1_radial)"/>
<path d="M356.591 185.995C356.591 185.995 355.041 189.075 357.531 199.265C360.021 209.455 358.151 213.595 353.801 219.905C349.451 226.214 336.561 239.724 337.341 256.184H312.512C312.512 256.184 317.002 245.184 318.242 234.754C319.482 224.324 325.881 218.145 335.571 213.175C345.261 208.205 348.361 189.265 356.591 185.995Z" fill="#3FB790"/>
<path d="M356.591 185.995C352.914 189.506 350.603 194.209 350.071 199.265C349.301 207.585 348.071 213.955 340.752 221.094C333.432 228.234 324.752 238.954 324.752 256.184" stroke="white" stroke-width="1.22" stroke-miterlimit="10"/>
<path d="M361.591 110.147C361.591 110.147 359.731 113.407 361.591 121.797C363.451 130.187 364.591 140.656 360.771 145.316C356.951 149.976 351.112 155.566 349.022 165.316C346.932 175.066 351.812 182.085 346.692 190.475C341.572 198.865 336.692 200.135 335.742 211.375C334.792 222.614 343.432 233.374 322.932 256.154H276.394C276.394 256.154 291.023 228.674 295.213 214.235C299.403 199.795 295.913 193.035 302.433 183.135C308.953 173.236 318.043 176.256 322.002 167.056C325.962 157.856 326.002 149.946 331.552 144.126C337.102 138.307 346.222 135.967 349.812 127.037C353.292 118.417 358.571 111.547 361.591 110.147Z" fill="#90DAD8"/>
<path d="M361.591 110.147C354.451 117.987 354.141 127.767 353.671 134.917C353.201 142.066 342.491 144.386 338.771 153.916C335.051 163.446 335.511 172.366 331.081 180.485C326.651 188.605 319.672 189.555 314.782 200.735C309.892 211.915 317.342 237.534 299.872 256.164" stroke="white" stroke-width="1.22" stroke-miterlimit="10"/>
<path d="M90.3977 269.043L91.5877 268.473C79.6782 243.871 62.4906 222.197 41.2489 204.995L40.4189 205.995C61.5117 223.08 78.5766 244.608 90.3977 269.043Z" fill="#3FB790"/>
<path d="M41.999 217.995C45.999 216.865 48.619 212.845 48.619 212.845C47.7875 212.419 46.9124 212.083 46.009 211.845C44.1582 211.325 42.1998 211.325 40.349 211.845C38.5528 212.469 36.9526 213.556 35.709 214.995C35.0645 215.671 34.4915 216.411 33.999 217.205C36.5038 218.35 39.3187 218.628 41.999 217.995Z" fill="#3FB790"/>
<path d="M60.0886 211.645C59.6822 213.528 58.7574 215.26 57.4186 216.645C56.8201 217.34 56.1497 217.971 55.4186 218.525C54.9316 217.724 54.5262 216.877 54.2086 215.995C53.5158 214.173 53.2722 212.211 53.4986 210.275C54.1686 206.025 57.9486 203.135 57.9486 203.135C58.4969 203.959 58.9656 204.833 59.3486 205.745C60.1322 207.606 60.3882 209.648 60.0886 211.645Z" fill="#3FB790"/>
<path d="M48.3187 204.695C47.9896 206.568 47.0041 208.263 45.5387 209.475C44.4805 207.899 43.9419 206.032 43.9987 204.135C44.3007 202.264 45.2447 200.556 46.6687 199.305C47.0567 199.813 47.3918 200.359 47.6687 200.935C48.222 202.106 48.4466 203.406 48.3187 204.695Z" fill="#3FB790"/>
<path d="M39.6391 201.465C40.9963 202.802 41.8449 204.57 42.0391 206.465C40.158 206.487 38.3226 205.886 36.8191 204.755C35.4826 203.433 34.6092 201.714 34.3291 199.855C36.2312 199.768 38.1055 200.337 39.6391 201.465Z" fill="#3FB790"/>
<path d="M50.9991 229.484C53.3011 228.957 55.4353 227.864 57.2091 226.304C58.0981 225.577 58.9061 224.755 59.6191 223.854C58.6603 223.226 57.6253 222.722 56.5391 222.354C54.3485 221.493 51.9556 221.285 49.6491 221.754C47.3798 222.377 45.3119 223.579 43.6491 225.244C42.8025 226.022 42.0323 226.88 41.3491 227.804C42.3036 228.307 43.3094 228.706 44.3491 228.994C46.4893 229.715 48.7765 229.883 50.9991 229.484Z" fill="#3FB790"/>
<path d="M73.7983 223.635C73.11 225.913 71.7929 227.951 69.9983 229.515C69.1513 230.294 68.2264 230.984 67.2383 231.575C66.7587 230.527 66.3706 229.439 66.0783 228.325C65.4275 226.019 65.3384 223.592 65.8183 221.245C66.437 218.939 67.6589 216.841 69.3583 215.165C70.1521 214.342 71.0379 213.614 71.9983 212.995C72.5906 214.076 73.0794 215.211 73.4583 216.385C74.2338 218.724 74.3514 221.232 73.7983 223.635Z" fill="#3FB790"/>
<path d="M62.8785 243.394C65.2218 243.098 67.4569 242.233 69.3885 240.874C70.3524 240.239 71.2473 239.505 72.0585 238.684C71.1656 237.97 70.1964 237.356 69.1685 236.854C67.0761 235.779 64.722 235.318 62.3785 235.524C60.0367 235.885 57.834 236.866 55.9985 238.364C55.0858 239.058 54.2419 239.839 53.4785 240.694C54.3678 241.275 55.3044 241.78 56.2785 242.204C58.351 243.125 60.6149 243.533 62.8785 243.394Z" fill="#3FB790"/>
<path d="M86.138 239.994C85.2068 242.194 83.6706 244.083 81.708 245.444C80.7747 246.138 79.7688 246.728 78.708 247.204C78.3311 246.11 78.0632 244.981 77.908 243.834C77.4753 241.478 77.6403 239.051 78.388 236.774C79.2353 234.548 80.6651 232.589 82.528 231.104C83.3951 230.359 84.3446 229.714 85.358 229.184C85.8605 230.313 86.2264 231.498 86.448 232.714C87.0314 235.122 86.9239 237.645 86.138 239.994Z" fill="#3FB790"/>
<path d="M72.7585 257.734C75.128 257.675 77.4465 257.033 79.5085 255.864C80.5184 255.337 81.4732 254.711 82.3585 253.994C82.3585 253.994 78.2385 249.764 73.0185 249.924C70.6643 250.054 68.3867 250.806 66.4185 252.104C65.4394 252.707 64.5188 253.4 63.6685 254.174C66.2355 256.309 69.424 257.558 72.7585 257.734Z" fill="#3FB790"/>
<path d="M96.2378 256.644C95.1051 258.75 93.3902 260.486 91.2978 261.644C90.3108 262.237 89.2652 262.726 88.1778 263.104C88.1778 263.104 86.6678 257.464 88.8878 252.694C89.9667 250.561 91.592 248.753 93.5978 247.454C94.533 246.802 95.5395 246.258 96.5978 245.834C96.9575 247.017 97.1986 248.233 97.3178 249.464C97.6471 251.911 97.2725 254.402 96.2378 256.644Z" fill="#3FB790"/>
<path d="M88.9978 265.283C88.9978 265.283 89.7378 250.994 76.8781 243.994C64.0185 236.994 46.8089 237.574 44.609 236.354C42.409 235.134 48.4089 239.594 48.9188 243.694C49.4288 247.794 56.6186 263.043 69.0883 266.073C81.558 269.103 88.3679 267.143 88.9978 265.283Z" fill="#90DAD8"/>
<path d="M47.8589 237.644C48.6332 238.262 49.4713 238.795 50.3588 239.234C51.2488 239.694 52.1388 240.154 53.0287 240.574C54.8487 241.404 56.6987 242.154 58.5586 242.904C60.4186 243.654 62.3085 244.334 64.1785 245.024C65.1784 245.404 66.1784 245.824 67.1184 246.244C68.0584 246.664 69.0283 247.164 69.9483 247.684C73.6161 249.731 77.0126 252.231 80.0581 255.124C81.5468 256.569 82.9556 258.095 84.278 259.694C85.616 261.291 86.8043 263.008 87.8279 264.823L87.6279 264.993C85.9179 263.823 84.298 262.603 82.628 261.403L77.7581 257.854C74.5282 255.504 71.2983 253.224 67.9484 251.214C67.1184 250.694 66.2484 250.264 65.3984 249.774L62.7685 248.484C60.9086 247.624 59.0686 246.664 57.2586 245.644C55.4322 244.624 53.6751 243.485 51.9988 242.234C51.1575 241.623 50.359 240.954 49.6088 240.234C48.807 239.534 48.1306 238.702 47.6089 237.774L47.8589 237.644Z" fill="white"/>
<path d="M88.9979 264.933C88.9979 265.043 92.8379 270.193 92.9979 271.213C93.1579 272.233 92.2279 272.543 91.8979 271.813C91.5679 271.083 88.3579 265.463 88.3579 265.463L88.9979 264.933Z" fill="#C7E2FF"/>
<path d="M102.118 38.879H295.933C298.426 38.8711 300.896 39.3555 303.201 40.3044C305.507 41.2533 307.602 42.648 309.367 44.4085C311.132 46.1691 312.533 48.2608 313.488 50.5637C314.443 52.8666 314.934 55.3355 314.932 57.8285V270.403H83.168V57.8285C83.168 55.3358 83.6598 52.8676 84.6152 50.5653C85.5706 48.263 86.9709 46.1718 88.7358 44.4115C90.5007 42.6512 92.5956 41.2564 94.9005 40.3071C97.2053 39.3577 99.6748 38.8724 102.167 38.879H102.118Z" fill="white"/>
<path opacity="0.3" d="M164.316 281.263H191.786C192.738 281.262 193.659 280.927 194.39 280.317C195.121 279.707 195.615 278.86 195.785 277.923C201.325 248.834 218.675 223.484 246.274 201.415C246.91 200.91 247.358 200.205 247.544 199.415C247.692 198.837 247.696 198.231 247.557 197.651C247.417 197.071 247.138 196.533 246.744 196.085C246.35 195.637 245.853 195.291 245.295 195.079C244.738 194.866 244.137 194.793 243.544 194.865C222.67 197.603 203.256 207.065 188.24 221.821C173.223 236.576 163.421 255.82 160.316 276.643C160.239 277.216 160.287 277.8 160.456 278.353C160.624 278.908 160.911 279.42 161.296 279.853C161.684 280.28 162.158 280.621 162.686 280.853C163.194 281.103 163.75 281.243 164.316 281.263Z" fill="white"/>
<path d="M26.6663 142.519C30.9425 138.243 33.2314 133.599 31.7787 132.146C30.3259 130.693 25.6817 132.982 21.4054 137.258C17.1292 141.535 14.8403 146.179 16.293 147.632C17.7458 149.084 22.3901 146.796 26.6663 142.519Z" fill="#BEDBF7"/>
<path d="M45.4194 64.3294C31.5198 78.229 19.1501 88.3888 17.7901 86.9988C16.4302 85.6088 26.5799 73.2591 40.4696 59.3695C54.3592 45.4798 66.7389 35.3301 68.1089 36.7C69.4788 38.07 59.3191 50.4397 45.4194 64.3294Z" fill="#BEDBF7"/>
<path d="M169.771 101.502C170.369 97.7161 167.785 94.1621 163.999 93.5638C160.213 92.9655 156.659 95.5496 156.061 99.3355C155.463 103.121 158.047 106.675 161.832 107.274C165.618 107.872 169.172 105.288 169.771 101.502Z" fill="#D8DFEF"/>
<path d="M188.683 105.33C191.393 102.62 191.393 98.226 188.683 95.5158C185.973 92.8055 181.579 92.8055 178.868 95.5158C176.158 98.226 176.158 102.62 178.868 105.33C181.578 108.041 185.973 108.041 188.683 105.33Z" fill="#D8DFEF"/>
<path d="M211.39 102.009C212.267 98.278 209.954 94.5422 206.222 93.6651C202.491 92.7879 198.756 95.1014 197.878 98.8326C197.001 102.564 199.315 106.299 203.046 107.177C206.777 108.054 210.513 105.74 211.39 102.009Z" fill="#D8DFEF"/>
<path d="M232.342 101.518C232.955 97.7348 230.384 94.1713 226.6 93.5591C222.816 92.947 219.253 95.518 218.641 99.3017C218.028 103.085 220.599 106.649 224.383 107.261C228.167 107.873 231.73 105.302 232.342 101.518Z" fill="#D8DFEF"/>
<path d="M253.204 101.516C253.816 97.7323 251.245 94.1688 247.461 93.5567C243.678 92.9445 240.114 95.5156 239.502 99.2992C238.89 103.083 241.461 106.646 245.244 107.259C249.028 107.871 252.592 105.3 253.204 101.516Z" fill="#D8DFEF"/>
<path d="M274.081 101.558C274.706 97.7764 272.147 94.2044 268.365 93.5797C264.584 92.9551 261.012 95.5143 260.387 99.2959C259.762 103.077 262.321 106.649 266.103 107.274C269.885 107.899 273.457 105.34 274.081 101.558Z" fill="#D8DFEF"/>
<path d="M142.056 131.567C145.889 131.567 148.996 128.46 148.996 124.627C148.996 120.794 145.889 117.687 142.056 117.687C138.223 117.687 135.116 120.794 135.116 124.627C135.116 128.46 138.223 131.567 142.056 131.567Z" fill="#D8DFEF"/>
<path d="M162.917 131.567C166.749 131.567 169.857 128.46 169.857 124.627C169.857 120.794 166.749 117.687 162.917 117.687C159.084 117.687 155.977 120.794 155.977 124.627C155.977 128.46 159.084 131.567 162.917 131.567Z" fill="#D8DFEF"/>
<path d="M183.776 131.567C187.609 131.567 190.716 128.46 190.716 124.627C190.716 120.794 187.609 117.687 183.776 117.687C179.943 117.687 176.836 120.794 176.836 124.627C176.836 128.46 179.943 131.567 183.776 131.567Z" fill="#D8DFEF"/>
<path d="M204.635 131.567C208.468 131.567 211.575 128.46 211.575 124.627C211.575 120.794 208.468 117.687 204.635 117.687C200.802 117.687 197.695 120.794 197.695 124.627C197.695 128.46 200.802 131.567 204.635 131.567Z" fill="#D8DFEF"/>
<path d="M225.504 131.567C229.337 131.567 232.444 128.46 232.444 124.627C232.444 120.794 229.337 117.687 225.504 117.687C221.672 117.687 218.564 120.794 218.564 124.627C218.564 128.46 221.672 131.567 225.504 131.567Z" fill="#D8DFEF"/>
<path d="M246.364 131.567C250.197 131.567 253.304 128.46 253.304 124.627C253.304 120.794 250.197 117.687 246.364 117.687C242.531 117.687 239.424 120.794 239.424 124.627C239.424 128.46 242.531 131.567 246.364 131.567Z" fill="#D8DFEF"/>
<path d="M267.223 131.567C271.056 131.567 274.163 128.46 274.163 124.627C274.163 120.794 271.056 117.687 267.223 117.687C263.39 117.687 260.283 120.794 260.283 124.627C260.283 128.46 263.39 131.567 267.223 131.567Z" fill="#D8DFEF"/>
<path d="M142.056 155.776C145.889 155.776 148.996 152.669 148.996 148.836C148.996 145.004 145.889 141.896 142.056 141.896C138.223 141.896 135.116 145.004 135.116 148.836C135.116 152.669 138.223 155.776 142.056 155.776Z" fill="#D8DFEF"/>
<path d="M162.917 155.776C166.749 155.776 169.857 152.669 169.857 148.836C169.857 145.004 166.749 141.896 162.917 141.896C159.084 141.896 155.977 145.004 155.977 148.836C155.977 152.669 159.084 155.776 162.917 155.776Z" fill="#D8DFEF"/>
<path d="M183.776 155.776C187.609 155.776 190.716 152.669 190.716 148.836C190.716 145.004 187.609 141.896 183.776 141.896C179.943 141.896 176.836 145.004 176.836 148.836C176.836 152.669 179.943 155.776 183.776 155.776Z" fill="#D8DFEF"/>
<path d="M204.635 155.776C208.468 155.776 211.575 152.669 211.575 148.836C211.575 145.004 208.468 141.896 204.635 141.896C200.802 141.896 197.695 145.004 197.695 148.836C197.695 152.669 200.802 155.776 204.635 155.776Z" fill="#D8DFEF"/>
<path d="M225.504 155.776C229.337 155.776 232.444 152.669 232.444 148.836C232.444 145.004 229.337 141.896 225.504 141.896C221.672 141.896 218.564 145.004 218.564 148.836C218.564 152.669 221.672 155.776 225.504 155.776Z" fill="#D8DFEF"/>
<path d="M246.364 155.776C250.197 155.776 253.304 152.669 253.304 148.836C253.304 145.004 250.197 141.896 246.364 141.896C242.531 141.896 239.424 145.004 239.424 148.836C239.424 152.669 242.531 155.776 246.364 155.776Z" fill="#D8DFEF"/>
<path d="M267.223 155.776C271.056 155.776 274.163 152.669 274.163 148.836C274.163 145.004 271.056 141.896 267.223 141.896C263.39 141.896 260.283 145.004 260.283 148.836C260.283 152.669 263.39 155.776 267.223 155.776Z" fill="#D8DFEF"/>
<path d="M144.713 179.451C148.254 177.984 149.935 173.924 148.469 170.383C147.002 166.842 142.942 165.161 139.401 166.627C135.86 168.094 134.178 172.154 135.645 175.695C137.112 179.236 141.172 180.918 144.713 179.451Z" fill="#D8DFEF"/>
<path d="M165.435 179.506C169.006 178.112 170.77 174.088 169.375 170.517C167.981 166.947 163.957 165.183 160.386 166.577C156.816 167.971 155.052 171.996 156.446 175.566C157.84 179.136 161.865 180.9 165.435 179.506Z" fill="#D8DFEF"/>
<path d="M190.518 174.625C191.402 170.896 189.095 167.156 185.365 166.272C181.636 165.389 177.896 167.696 177.012 171.425C176.128 175.155 178.436 178.895 182.165 179.778C185.895 180.662 189.635 178.355 190.518 174.625Z" fill="#D8DFEF"/>
<path d="M209.539 177.955C212.25 175.245 212.25 170.851 209.539 168.141C206.829 165.431 202.435 165.431 199.725 168.141C197.014 170.851 197.014 175.245 199.725 177.955C202.435 180.666 206.829 180.666 209.539 177.955Z" fill="#D8DFEF"/>
<path d="M228.146 179.465C231.69 178.006 233.381 173.95 231.922 170.406C230.463 166.861 226.407 165.171 222.863 166.629C219.319 168.088 217.628 172.144 219.087 175.688C220.545 179.233 224.601 180.923 228.146 179.465Z" fill="#D8DFEF"/>
<path d="M249.005 179.466C252.549 178.007 254.24 173.951 252.781 170.407C251.323 166.862 247.267 165.171 243.722 166.63C240.178 168.089 238.487 172.145 239.946 175.689C241.405 179.234 245.461 180.924 249.005 179.466Z" fill="#D8DFEF"/>
<path d="M269.974 179.4C273.494 177.883 275.118 173.8 273.602 170.28C272.085 166.76 268.002 165.136 264.482 166.653C260.962 168.17 259.338 172.253 260.855 175.773C262.371 179.293 266.454 180.917 269.974 179.4Z" fill="#D8DFEF"/>
<path d="M142.056 204.195C145.889 204.195 148.996 201.088 148.996 197.255C148.996 193.422 145.889 190.315 142.056 190.315C138.223 190.315 135.116 193.422 135.116 197.255C135.116 201.088 138.223 204.195 142.056 204.195Z" fill="#D8DFEF"/>
<path d="M162.917 204.195C166.749 204.195 169.857 201.088 169.857 197.255C169.857 193.422 166.749 190.315 162.917 190.315C159.084 190.315 155.977 193.422 155.977 197.255C155.977 201.088 159.084 204.195 162.917 204.195Z" fill="#D8DFEF"/>
<path d="M183.776 204.195C187.609 204.195 190.716 201.088 190.716 197.255C190.716 193.422 187.609 190.315 183.776 190.315C179.943 190.315 176.836 193.422 176.836 197.255C176.836 201.088 179.943 204.195 183.776 204.195Z" fill="#D8DFEF"/>
<path d="M139.156 81.4881L139.706 80.2781C140.38 80.7423 141.178 80.9932 141.996 80.9981C142.996 80.9981 143.336 80.6781 143.336 80.2481C143.336 78.9481 139.336 79.8381 139.336 77.2481C139.336 76.0681 140.336 75.0881 142.266 75.0881C143.113 75.0671 143.95 75.278 144.686 75.6981L144.186 76.9181C143.599 76.5772 142.935 76.3914 142.256 76.3781C141.306 76.3781 140.936 76.7281 140.936 77.1681C140.936 78.4481 144.936 77.5681 144.936 80.1681C144.936 81.3281 143.936 82.3281 141.986 82.3281C140.98 82.3393 139.994 82.0465 139.156 81.4881Z" fill="#5278FF"/>
<path d="M165.326 82.1782V77.9982L163.326 81.4282H162.606L160.606 78.0882V82.1682H158.996V75.1682H160.326L162.926 79.4982L165.496 75.1682H166.816V82.1682L165.326 82.1782Z" fill="#5278FF"/>
<path d="M182.996 76.5383H180.766V75.2183H186.826V76.5383H184.606V82.1783H182.996V76.5383Z" fill="#5278FF"/>
<path d="M210.195 75.2183L207.925 82.2183H206.195L204.665 77.5083L203.085 82.2183H201.365L199.085 75.2183H200.745L202.315 80.1083L203.995 75.2183H205.485L206.995 80.1483L208.615 75.2183H210.195Z" fill="#5278FF"/>
<path d="M224.695 76.5383H222.475V75.2183H228.535V76.5383H226.305V82.1783H224.695V76.5383Z" fill="#5278FF"/>
<path d="M245.344 76.5182V78.3482H248.564V79.6382H245.344V82.1782H243.734V75.1782H248.994V76.4782L245.344 76.5182Z" fill="#5278FF"/>
<path d="M264.333 81.4881L264.883 80.2781C265.555 80.7475 266.353 81.0021 267.173 81.0081C268.173 81.0081 268.513 80.6881 268.513 80.2581C268.513 78.9581 264.513 79.8481 264.513 77.2581C264.513 76.0781 265.463 75.0981 267.443 75.0981C268.287 75.0774 269.12 75.2884 269.853 75.7081L269.363 76.9281C268.776 76.5872 268.112 76.4014 267.433 76.3881C266.483 76.3881 266.113 76.7381 266.113 77.1781C266.113 78.4581 270.113 77.5781 270.113 80.1781C270.113 81.3381 269.113 82.3381 267.163 82.3381C266.155 82.3501 265.168 82.0535 264.333 81.4881Z" fill="#5278FF"/>
<path d="M340.157 86.834C344.433 82.5577 346.722 77.9135 345.269 76.4607C343.817 75.008 339.172 77.2969 334.896 81.5731C330.62 85.8493 328.331 90.4936 329.784 91.9464C331.237 93.3991 335.881 91.1102 340.157 86.834Z" fill="#BEDBF7"/>
<path d="M378.481 151.277C374.211 155.557 369.561 157.837 368.111 156.387C366.661 154.937 368.941 150.287 373.221 146.017C377.501 141.747 382.141 139.447 383.591 140.907C385.041 142.367 382.761 146.997 378.481 151.277Z" fill="#BEDBF7"/>
<path d="M354.841 102.888C340.942 116.787 328.572 126.947 327.212 125.577C325.852 124.207 335.992 111.837 349.892 97.9976C363.791 84.158 376.161 73.9382 377.531 75.3082C378.901 76.6782 368.741 88.9979 354.841 102.888Z" fill="#BEDBF7"/>
<path d="M317.492 278.993C317.019 278.97 316.574 278.76 316.256 278.409C315.937 278.059 315.77 277.596 315.792 277.123V57.6887C315.792 48.9689 309.282 41.8691 301.283 41.8691H98.7076C90.7078 41.8691 84.198 48.9689 84.198 57.6887V270.513C84.224 270.753 84.1991 270.996 84.1251 271.226C84.051 271.456 83.9293 271.668 83.768 271.847C83.6067 272.027 83.4094 272.171 83.1888 272.269C82.9683 272.368 82.7295 272.419 82.488 272.419C82.2465 272.419 82.0077 272.368 81.7872 272.269C81.5667 272.171 81.3693 272.027 81.208 271.847C81.0467 271.668 80.9251 271.456 80.851 271.226C80.7769 270.996 80.7521 270.753 80.7781 270.513V57.6887C80.7781 46.9089 88.7779 38.1292 98.7076 38.1292H301.283C311.202 38.1292 319.222 46.9089 319.222 57.6887V277.123C319.233 277.599 319.059 278.06 318.736 278.409C318.413 278.758 317.967 278.967 317.492 278.993Z" fill="#E0E9F3"/>
<path d="M275.773 184.875L268.533 171.756L261.283 184.875C260.57 186.171 259.522 187.25 258.248 188.001C256.974 188.753 255.522 189.148 254.044 189.145H205.725C203.531 189.148 201.427 190.021 199.877 191.574C198.326 193.126 197.455 195.231 197.455 197.425V256.714C197.455 258.907 198.326 261.01 199.877 262.561C201.428 264.112 203.532 264.983 205.725 264.983H331.332C333.526 264.983 335.63 264.112 337.183 262.562C338.735 261.011 339.609 258.908 339.612 256.714V197.425C339.612 195.229 338.739 193.123 337.186 191.57C335.634 190.018 333.528 189.145 331.332 189.145H282.993C281.518 189.144 280.07 188.747 278.8 187.996C277.53 187.245 276.485 186.168 275.773 184.875Z" fill="#5278FF"/>
<path d="M222.815 210.995C220.924 211.203 219.126 211.923 217.613 213.076C216.1 214.23 214.931 215.774 214.229 217.542C213.528 219.311 213.322 221.237 213.633 223.114C213.944 224.99 214.761 226.747 215.995 228.195C218.665 231.446 220.82 235.089 222.385 238.995L223.455 241.525C223.502 241.617 223.573 241.695 223.661 241.749C223.75 241.804 223.851 241.832 223.955 241.832C224.059 241.832 224.16 241.804 224.249 241.749C224.337 241.695 224.408 241.617 224.455 241.525L225.855 238.185C227.488 234.485 229.611 231.02 232.165 227.885C233.441 226.265 234.211 224.305 234.378 222.25C234.544 220.195 234.101 218.137 233.102 216.333C232.103 214.529 230.595 213.06 228.765 212.111C226.934 211.161 224.865 210.773 222.815 210.995ZM224.015 225.475C223.21 225.475 222.423 225.236 221.754 224.789C221.085 224.342 220.563 223.706 220.255 222.962C219.947 222.218 219.866 221.4 220.023 220.611C220.18 219.821 220.568 219.096 221.137 218.527C221.706 217.958 222.432 217.57 223.221 217.413C224.011 217.256 224.829 217.336 225.573 217.644C226.316 217.953 226.952 218.474 227.399 219.143C227.846 219.813 228.085 220.6 228.085 221.405C228.085 221.941 227.979 222.472 227.773 222.967C227.568 223.462 227.266 223.911 226.886 224.29C226.506 224.668 226.055 224.967 225.559 225.171C225.063 225.374 224.531 225.477 223.995 225.475H224.015Z" fill="white"/>
<path d="M320.352 226.104H252.183C251.71 226.102 251.258 225.912 250.924 225.577C250.591 225.241 250.403 224.787 250.403 224.314C250.403 223.842 250.591 223.39 250.925 223.056C251.258 222.722 251.711 222.534 252.183 222.534H320.352C320.825 222.534 321.278 222.722 321.614 223.055C321.949 223.389 322.139 223.841 322.142 224.314C322.142 224.789 321.953 225.244 321.617 225.58C321.282 225.916 320.826 226.104 320.352 226.104Z" fill="white"/>
<path d="M320.352 235.734H252.183C251.71 235.732 251.258 235.542 250.924 235.206C250.591 234.871 250.403 234.417 250.403 233.944C250.403 233.472 250.591 233.019 250.925 232.686C251.258 232.352 251.711 232.164 252.183 232.164H320.352C320.825 232.164 321.278 232.352 321.614 232.685C321.949 233.019 322.139 233.471 322.142 233.944C322.142 234.419 321.953 234.874 321.617 235.21C321.282 235.546 320.826 235.734 320.352 235.734Z" fill="white"/>
<path d="M275.713 256.534H252.183C251.711 256.534 251.258 256.346 250.925 256.012C250.591 255.678 250.403 255.226 250.403 254.754C250.403 254.281 250.591 253.827 250.924 253.491C251.258 253.156 251.71 252.966 252.183 252.964H275.713C276.186 252.966 276.639 253.156 276.973 253.491C277.306 253.827 277.493 254.281 277.493 254.754C277.493 255.226 277.306 255.678 276.972 256.012C276.638 256.346 276.185 256.534 275.713 256.534Z" fill="white"/>
<path d="M318.462 199.305H253.214C251.734 199.305 250.534 200.505 250.534 201.985V212.215C250.534 213.695 251.734 214.895 253.214 214.895H318.462C319.943 214.895 321.142 213.695 321.142 212.215V201.985C321.142 200.505 319.943 199.305 318.462 199.305Z" fill="url(#paint2_linear)"/>
<path d="M87.8076 139.646C96.0575 139.648 104.122 137.203 110.982 132.62C117.842 128.037 123.188 121.523 126.344 113.9C129.5 106.278 130.325 97.891 128.713 89.8002C127.101 81.7093 123.125 74.2785 117.289 68.4477C111.453 62.617 104.018 58.6486 95.9257 57.0444C87.8333 55.4403 79.447 56.2726 71.8278 59.4361C64.2086 62.5996 57.699 67.952 53.1226 74.8162C48.5462 81.6803 46.1088 89.7477 46.1187 97.9975C46.1319 109.046 50.5297 119.638 58.3461 127.447C66.1626 135.256 76.7588 139.644 87.8076 139.646Z" fill="url(#paint3_linear)"/>
<path d="M91.0885 97.9981L105.648 83.4281C105.863 83.2134 106.033 82.9585 106.15 82.6779C106.266 82.3974 106.326 82.0967 106.326 81.7931C106.326 81.4894 106.266 81.1888 106.15 80.9082C106.033 80.6277 105.863 80.3728 105.648 80.1581C105.434 79.9434 105.179 79.7731 104.898 79.6569C104.618 79.5407 104.317 79.4809 104.013 79.4809C103.71 79.4809 103.409 79.5407 103.129 79.6569C102.848 79.7731 102.593 79.9434 102.378 80.1581L87.8085 94.6681L73.2385 80.1081C73.0276 79.8891 72.7717 79.7185 72.4885 79.6081C72.2085 79.4896 71.9075 79.4285 71.6035 79.4285C71.2994 79.4285 70.9985 79.4896 70.7185 79.6081C70.4352 79.7185 70.1793 79.8891 69.9685 80.1081C69.7497 80.3212 69.5763 80.5763 69.4585 80.8581C69.2319 81.4264 69.2319 82.0598 69.4585 82.6281C69.5763 82.9099 69.7497 83.1649 69.9685 83.3781L84.5385 97.9981L69.9985 112.518C69.7797 112.731 69.6063 112.986 69.4885 113.268C69.3134 113.693 69.2684 114.16 69.3592 114.611C69.45 115.061 69.6725 115.474 69.9985 115.798C70.2121 116.012 70.4663 116.182 70.7461 116.297C71.026 116.412 71.3259 116.47 71.6285 116.468C71.9332 116.468 72.2351 116.41 72.5185 116.298C72.7978 116.18 73.0523 116.011 73.2685 115.798L87.8385 101.218L102.408 115.798C102.679 116.067 103.011 116.265 103.376 116.375C103.741 116.484 104.128 116.502 104.501 116.427C104.875 116.352 105.224 116.186 105.519 115.944C105.813 115.701 106.043 115.39 106.188 115.038C106.307 114.758 106.368 114.457 106.368 114.153C106.368 113.849 106.307 113.548 106.188 113.268C106.071 112.986 105.897 112.731 105.678 112.518L91.0885 97.9981Z" fill="white"/>
</g>
<defs>
<linearGradient id="paint0_linear" x1="191.865" y1="294.983" x2="209.915" y2="-59.3685" gradientUnits="userSpaceOnUse">
<stop stop-color="#FEFEFD"/>
<stop offset="1" stop-color="#EBF3FF"/>
</linearGradient>
<radialGradient id="paint1_radial" cx="0" cy="0" r="1" gradientUnits="userSpaceOnUse" gradientTransform="translate(201.425 290.693) scale(108.597 103.427)">
<stop stop-color="#D0DFF3"/>
<stop offset="0.99" stop-color="#D0DFF3"/>
</radialGradient>
<linearGradient id="paint2_linear" x1="17940.7" y1="3428.07" x2="22926.4" y2="3428.07" gradientUnits="userSpaceOnUse">
<stop stop-color="#FEFEFD"/>
<stop offset="1" stop-color="#EBF3FF"/>
</linearGradient>
<linearGradient id="paint3_linear" x1="86.4377" y1="164.226" x2="90.6176" y2="-37.3091" gradientUnits="userSpaceOnUse">
<stop stop-color="#FF8E00"/>
<stop offset="1" stop-color="#FFCF01"/>
</linearGradient>
<clipPath id="clip0">
<rect width="400" height="299.023" fill="white"/>
</clipPath>
</defs>
</svg>
